<svg xmlns="http://www.w3.org/2000/svg" xmlns:xlink="http://www.w3.org/1999/xlink" style="margin:auto;background:#f1f2f3;display:block;z-index:1;position:relative" width="1366" height="635" preserveAspectRatio="xMidYMid" viewBox="0 0 1366 635">
<g transform="translate(683,317.5) scale(1,1) translate(-683,-317.5)"><defs>
<linearGradient id="lg-0.9524515822442818" x1="0" x2="0" y1="0" y2="1">
  <stop stop-color="#22c55e" offset="0.3"></stop>
  <stop stop-color="#000000" offset="0.6499999999999999"></stop>
  <stop stop-color="#000000" offset="1"></stop>
</linearGradient>
<linearGradient id="fg-lg-0.9524515822442818" x1="0" x2="0" y1="0" y2="1">
  <stop stop-color="#22c55e" stop-opacity="1" offset="0.3"></stop>
  <stop stop-color="#000000" stop-opacity="0.66" offset="0.6499999999999999"></stop>
  <stop stop-color="#000000" stop-opacity="0" offset="1"></stop>
</linearGradient>
<style type="text/css">
  path { fill: none; stroke: #000e07; stroke-width: 23px }
</style>
</defs>
<rect x="0" y="0" width="1366" height="635" fill="url(#lg-0.9524515822442818)"></rect><path d="M0 190.5 L-7991.1 635"></path><path d="M10.841269841269842 190.5 L-7853.415873015873 635"></path><path d="M21.682539682539684 190.5 L-7715.731746031746 635"></path><path d="M32.523809523809526 190.5 L-7578.047619047619 635"></path><path d="M43.36507936507937 190.5 L-7440.363492063492 635"></path><path d="M54.20634920634921 190.5 L-7302.679365079365 635"></path><path d="M65.04761904761905 190.5 L-7164.995238095238 635"></path><path d="M75.88888888888889 190.5 L-7027.311111111111 635"></path><path d="M86.73015873015873 190.5 L-6889.626984126984 635"></path><path d="M97.57142857142857 190.5 L-6751.942857142857 635"></path><path d="M108.41269841269842 190.5 L-6614.25873015873 635"></path><path d="M119.25396825396825 190.5 L-6476.574603174604 635"></path><path d="M130.0952380952381 190.5 L-6338.890476190476 635"></path><path d="M140.93650793650792 190.5 L-6201.20634920635 635"></path><path d="M151.77777777777777 190.5 L-6063.522222222222 635"></path><path d="M162.61904761904762 190.5 L-5925.838095238096 635"></path><path d="M173.46031746031747 190.5 L-5788.153968253969 635"></path><path d="M184.3015873015873 190.5 L-5650.469841269842 635"></path><path d="M195.14285714285714 190.5 L-5512.785714285714 635"></path><path d="M205.984126984127 190.5 L-5375.101587301588 635"></path><path d="M216.82539682539684 190.5 L-5237.417460317461 635"></path><path d="M227.66666666666666 190.5 L-5099.733333333334 635"></path><path d="M238.5079365079365 190.5 L-4962.0492063492065 635"></path><path d="M249.34920634920636 190.5 L-4824.3650793650795 635"></path><path d="M260.1904761904762 190.5 L-4686.6809523809525 635"></path><path d="M271.031746031746 190.5 L-4548.996825396825 635"></path><path d="M281.87301587301585 190.5 L-4411.312698412699 635"></path><path d="M292.7142857142857 190.5 L-4273.628571428571 635"></path><path d="M303.55555555555554 190.5 L-4135.944444444444 635"></path><path d="M314.3968253968254 190.5 L-3998.2603174603173 635"></path><path d="M325.23809523809524 190.5 L-3860.576190476191 635"></path><path d="M336.07936507936506 190.5 L-3722.8920634920632 635"></path><path d="M346.92063492063494 190.5 L-3585.207936507937 635"></path><path d="M357.76190476190476 190.5 L-3447.52380952381 635"></path><path d="M368.6031746031746 190.5 L-3309.839682539682 635"></path><path d="M379.44444444444446 190.5 L-3172.155555555556 635"></path><path d="M390.2857142857143 190.5 L-3034.471428571428 635"></path><path d="M401.12698412698415 190.5 L-2896.787301587302 635"></path><path d="M411.968253968254 190.5 L-2759.103174603175 635"></path><path d="M422.8095238095238 190.5 L-2621.419047619048 635"></path><path d="M433.6507936507937 190.5 L-2483.734920634921 635"></path><path d="M444.4920634920635 190.5 L-2346.050793650794 635"></path><path d="M455.3333333333333 190.5 L-2208.366666666667 635"></path><path d="M466.1746031746032 190.5 L-2070.6825396825407 635"></path><path d="M477.015873015873 190.5 L-1932.9984126984127 635"></path><path d="M487.85714285714283 190.5 L-1795.3142857142857 635"></path><path d="M498.6984126984127 190.5 L-1657.6301587301587 635"></path><path d="M509.53968253968253 190.5 L-1519.9460317460316 635"></path><path d="M520.3809523809524 190.5 L-1382.2619047619046 635"></path><path d="M531.2222222222222 190.5 L-1244.5777777777776 635"></path><path d="M542.063492063492 190.5 L-1106.8936507936514 635"></path><path d="M552.9047619047619 190.5 L-969.2095238095235 635"></path><path d="M563.7460317460317 190.5 L-831.5253968253974 635"></path><path d="M574.5873015873016 190.5 L-693.8412698412694 635"></path><path d="M585.4285714285714 190.5 L-556.1571428571433 635"></path><path d="M596.2698412698413 190.5 L-418.47301587301627 635"></path><path d="M607.1111111111111 190.5 L-280.7888888888883 635"></path><path d="M617.952380952381 190.5 L-143.1047619047622 635"></path><path d="M628.7936507936508 190.5 L-5.420634920634257 635"></path><path d="M639.6349206349206 190.5 L132.26349206349187 635"></path><path d="M650.4761904761905 190.5 L269.947619047618 635"></path><path d="M661.3174603174604 190.5 L407.63174603174593 635"></path><path d="M672.1587301587301 190.5 L545.3158730158739 635"></path><path d="M683 190.5 L683 635"></path><path d="M693.8412698412699 190.5 L820.6841269841261 635"></path><path d="M704.6825396825396 190.5 L958.3682539682541 635"></path><path d="M715.5238095238095 190.5 L1096.0523809523802 635"></path><path d="M726.3650793650794 190.5 L1233.7365079365081 635"></path><path d="M737.2063492063492 190.5 L1371.420634920636 635"></path><path d="M748.047619047619 190.5 L1509.1047619047622 635"></path><path d="M758.8888888888889 190.5 L1646.7888888888883 635"></path><path d="M769.7301587301587 190.5 L1784.4730158730144 635"></path><path d="M780.5714285714286 190.5 L1922.1571428571442 635"></path><path d="M791.4126984126984 190.5 L2059.8412698412703 635"></path><path d="M802.2539682539683 190.5 L2197.5253968253965 635"></path><path d="M813.0952380952381 190.5 L2335.2095238095226 635"></path><path d="M823.936507936508 190.5 L2472.8936507936505 635"></path><path d="M834.7777777777778 190.5 L2610.5777777777785 635"></path><path d="M845.6190476190476 190.5 L2748.2619047619046 635"></path><path d="M856.4603174603175 190.5 L2885.9460317460325 635"></path><path d="M867.3015873015873 190.5 L3023.6301587301587 635"></path><path d="M878.1428571428571 190.5 L3161.314285714285 635"></path><path d="M888.984126984127 190.5 L3298.9984126984127 635"></path><path d="M899.8253968253969 190.5 L3436.6825396825407 635"></path><path d="M910.6666666666666 190.5 L3574.366666666667 635"></path><path d="M921.5079365079365 190.5 L3712.050793650793 635"></path><path d="M932.3492063492064 190.5 L3849.734920634919 635"></path><path d="M943.1904761904761 190.5 L3987.419047619049 635"></path><path d="M954.031746031746 190.5 L4125.103174603175 635"></path><path d="M964.8730158730159 190.5 L4262.787301587301 635"></path><path d="M975.7142857142857 190.5 L4400.471428571429 635"></path><path d="M986.5555555555555 190.5 L4538.155555555555 635"></path><path d="M997.3968253968254 190.5 L4675.839682539683 635"></path><path d="M1008.2380952380952 190.5 L4813.523809523809 635"></path><path d="M1019.0793650793651 190.5 L4951.207936507937 635"></path><path d="M1029.920634920635 190.5 L5088.892063492063 635"></path><path d="M1040.7619047619048 190.5 L5226.576190476191 635"></path><path d="M1051.6031746031747 190.5 L5364.260317460317 635"></path><path d="M1062.4444444444443 190.5 L5501.944444444445 635"></path><path d="M1073.2857142857142 190.5 L5639.628571428571 635"></path><path d="M1084.126984126984 190.5 L5777.3126984126975 635"></path><path d="M1094.968253968254 190.5 L5914.996825396827 635"></path><path d="M1105.8095238095239 190.5 L6052.680952380953 635"></path><path d="M1116.6507936507937 190.5 L6190.3650793650795 635"></path><path d="M1127.4920634920634 190.5 L6328.049206349206 635"></path><path d="M1138.3333333333333 190.5 L6465.733333333334 635"></path><path d="M1149.1746031746031 190.5 L6603.4174603174615 635"></path><path d="M1160.015873015873 190.5 L6741.101587301588 635"></path><path d="M1170.857142857143 190.5 L6878.785714285714 635"></path><path d="M1181.6984126984128 190.5 L7016.469841269842 635"></path><path d="M1192.5396825396826 190.5 L7154.153968253968 635"></path><path d="M1203.3809523809523 190.5 L7291.838095238096 635"></path><path d="M1214.2222222222222 190.5 L7429.522222222224 635"></path><path d="M1225.063492063492 190.5 L7567.20634920635 635"></path><path d="M1235.904761904762 190.5 L7704.890476190476 635"></path><path d="M1246.7460317460318 190.5 L7842.574603174602 635"></path><path d="M1257.5873015873017 190.5 L7980.258730158732 635"></path><path d="M1268.4285714285713 190.5 L8117.942857142858 635"></path><path d="M1279.2698412698412 190.5 L8255.626984126984 635"></path><path d="M1290.111111111111 190.5 L8393.311111111112 635"></path><path d="M1300.952380952381 190.5 L8530.995238095236 635"></path><path d="M1311.7936507936508 190.5 L8668.679365079368 635"></path><path d="M1322.6349206349207 190.5 L8806.363492063492 635"></path><path d="M1333.4761904761904 190.5 L8944.04761904762 635"></path><path d="M1344.3174603174602 190.5 L9081.731746031748 635"></path><path d="M1355.1587301587301 190.5 L9219.415873015872 635"></path><path d="M1366 190.5 L9357.1 635"></path><g>
<path d="M0 190.5 L1366 190.5"></path>
<animateTransform attributeName="transform" type="translate" repeatCount="indefinite" calcMode="linear" keyTimes="0;1" values="0 0;0 3.583774250440917" begin="0s" dur="0.8333333333333334s"></animateTransform>

</g><g>
<path d="M0 194.0837742504409 L1366 194.0837742504409"></path>
<animateTransform attributeName="transform" type="translate" repeatCount="indefinite" calcMode="linear" keyTimes="0;1" values="0 0;0 7.167548500881833" begin="0s" dur="0.8333333333333334s"></animateTransform>

</g><g>
<path d="M0 201.25132275132273 L1366 201.25132275132273"></path>
<animateTransform attributeName="transform" type="translate" repeatCount="indefinite" calcMode="linear" keyTimes="0;1" values="0 0;0 10.75132275132275" begin="0s" dur="0.8333333333333334s"></animateTransform>

</g><g>
<path d="M0 212.0026455026455 L1366 212.0026455026455"></path>
<animateTransform attributeName="transform" type="translate" repeatCount="indefinite" calcMode="linear" keyTimes="0;1" values="0 0;0 14.335097001763668" begin="0s" dur="0.8333333333333334s"></animateTransform>

</g><g>
<path d="M0 226.33774250440916 L1366 226.33774250440916"></path>
<animateTransform attributeName="transform" type="translate" repeatCount="indefinite" calcMode="linear" keyTimes="0;1" values="0 0;0 17.918871252204585" begin="0s" dur="0.8333333333333334s"></animateTransform>

</g><g>
<path d="M0 244.25661375661375 L1366 244.25661375661375"></path>
<animateTransform attributeName="transform" type="translate" repeatCount="indefinite" calcMode="linear" keyTimes="0;1" values="0 0;0 21.502645502645503" begin="0s" dur="0.8333333333333334s"></animateTransform>

</g><g>
<path d="M0 265.75925925925924 L1366 265.75925925925924"></path>
<animateTransform attributeName="transform" type="translate" repeatCount="indefinite" calcMode="linear" keyTimes="0;1" values="0 0;0 25.08641975308642" begin="0s" dur="0.8333333333333334s"></animateTransform>

</g><g>
<path d="M0 290.84567901234567 L1366 290.84567901234567"></path>
<animateTransform attributeName="transform" type="translate" repeatCount="indefinite" calcMode="linear" keyTimes="0;1" values="0 0;0 28.670194003527335" begin="0s" dur="0.8333333333333334s"></animateTransform>

</g><g>
<path d="M0 319.515873015873 L1366 319.515873015873"></path>
<animateTransform attributeName="transform" type="translate" repeatCount="indefinite" calcMode="linear" keyTimes="0;1" values="0 0;0 32.25396825396825" begin="0s" dur="0.8333333333333334s"></animateTransform>

</g><g>
<path d="M0 351.76984126984127 L1366 351.76984126984127"></path>
<animateTransform attributeName="transform" type="translate" repeatCount="indefinite" calcMode="linear" keyTimes="0;1" values="0 0;0 35.83774250440917" begin="0s" dur="0.8333333333333334s"></animateTransform>

</g><g>
<path d="M0 387.60758377425043 L1366 387.60758377425043"></path>
<animateTransform attributeName="transform" type="translate" repeatCount="indefinite" calcMode="linear" keyTimes="0;1" values="0 0;0 39.42151675485009" begin="0s" dur="0.8333333333333334s"></animateTransform>

</g><g>
<path d="M0 427.0291005291005 L1366 427.0291005291005"></path>
<animateTransform attributeName="transform" type="translate" repeatCount="indefinite" calcMode="linear" keyTimes="0;1" values="0 0;0 43.00529100529101" begin="0s" dur="0.8333333333333334s"></animateTransform>

</g><g>
<path d="M0 470.0343915343915 L1366 470.0343915343915"></path>
<animateTransform attributeName="transform" type="translate" repeatCount="indefinite" calcMode="linear" keyTimes="0;1" values="0 0;0 46.589065255731924" begin="0s" dur="0.8333333333333334s"></animateTransform>

</g><g>
<path d="M0 516.6234567901234 L1366 516.6234567901234"></path>
<animateTransform attributeName="transform" type="translate" repeatCount="indefinite" calcMode="linear" keyTimes="0;1" values="0 0;0 50.17283950617284" begin="0s" dur="0.8333333333333334s"></animateTransform>

</g><g>
<path d="M0 566.7962962962963 L1366 566.7962962962963"></path>
<animateTransform attributeName="transform" type="translate" repeatCount="indefinite" calcMode="linear" keyTimes="0;1" values="0 0;0 53.75661375661376" begin="0s" dur="0.8333333333333334s"></animateTransform>

</g><g>
<path d="M0 620.5529100529101 L1366 620.5529100529101"></path>
<animateTransform attributeName="transform" type="translate" repeatCount="indefinite" calcMode="linear" keyTimes="0;1" values="0 0;0 57.34038800705468" begin="0s" dur="0.8333333333333334s"></animateTransform>

</g><rect x="0" y="0" width="1366" height="635" fill="url(#fg-lg-0.9524515822442818)"></rect></g>
</svg>